<svg width="26" height="24" viewBox="0 0 26 24" fill="none" xmlns="http://www.w3.org/2000/svg">
<path d="M10.9375 21.625C10.9375 22.0576 10.8092 22.4806 10.5688 22.8403C10.3285 23.2 9.98683 23.4804 9.58712 23.646C9.18741 23.8116 8.74757 23.8549 8.32324 23.7705C7.89891 23.6861 7.50913 23.4777 7.2032 23.1718C6.89728 22.8659 6.68894 22.4761 6.60453 22.0518C6.52013 21.6274 6.56345 21.1876 6.72901 20.7879C6.89458 20.3882 7.17496 20.0465 7.53469 19.8062C7.89442 19.5658 8.31735 19.4375 8.75 19.4375C9.32928 19.4404 9.88401 19.6718 10.2936 20.0814C10.7032 20.491 10.9346 21.0457 10.9375 21.625ZM20.125 19.4375C19.6924 19.4375 19.2694 19.5658 18.9097 19.8062C18.55 20.0465 18.2696 20.3882 18.104 20.7879C17.9384 21.1876 17.8951 21.6274 17.9795 22.0518C18.0639 22.4761 18.2723 22.8659 18.5782 23.1718C18.8841 23.4777 19.2739 23.6861 19.6982 23.7705C20.1226 23.8549 20.5624 23.8116 20.9621 23.646C21.3618 23.4804 21.7035 23.2 21.9438 22.8403C22.1842 22.4806 22.3125 22.0576 22.3125 21.625C22.3096 21.0457 22.0782 20.491 21.6686 20.0814C21.259 19.6718 20.7043 19.4404 20.125 19.4375ZM25.5172 6.23594L22.8703 15.4672C22.6859 16.1056 22.2994 16.667 21.769 17.0673C21.2386 17.4676 20.5927 17.6852 19.9281 17.6875H8.94688C8.28234 17.6852 7.63645 17.4676 7.106 17.0673C6.57556 16.667 6.18915 16.1056 6.00469 15.4672L3.36875 6.25781C3.36875 6.24688 3.35781 6.225 3.35781 6.21406L2.38437 2.8125H1.3125C0.964403 2.8125 0.630564 2.67422 0.384422 2.42808C0.138281 2.18194 0 1.8481 0 1.5C0 1.1519 0.138281 0.818064 0.384422 0.571922C0.630564 0.325781 0.964403 0.1875 1.3125 0.1875H2.7125C3.18777 0.191105 3.64933 0.347121 4.02932 0.632603C4.40931 0.918085 4.68766 1.31797 4.82344 1.77344L5.61094 4.5625H24.2484C24.4515 4.56366 24.6515 4.61151 24.833 4.70235C25.0146 4.79318 25.1728 4.92457 25.2955 5.08635C25.4181 5.24813 25.5019 5.43595 25.5404 5.63529C25.5788 5.83464 25.5709 6.04015 25.5172 6.23594ZM22.5094 7.1875H6.36563L8.52031 14.7453C8.5483 14.8368 8.60479 14.9169 8.68153 14.9739C8.75827 15.031 8.85124 15.062 8.94688 15.0625H19.9281C20.0238 15.062 20.1167 15.031 20.1935 14.9739C20.2702 14.9169 20.3267 14.8368 20.3547 14.7453L22.5094 7.1875Z" fill="white"/>
</svg>
