<svg width="24" height="24" viewBox="0 0 24 24" fill="none" xmlns="http://www.w3.org/2000/svg">
<path d="M17.0208 15.0833H16.0004L15.6388 14.7346C16.9483 13.2156 17.6681 11.2764 17.6667 9.27084C17.6667 7.6103 17.1743 5.98705 16.2517 4.60636C15.3292 3.22567 14.0179 2.14956 12.4838 1.5141C10.9496 0.878638 9.26152 0.712372 7.63289 1.03633C6.00426 1.36028 4.50826 2.15991 3.33409 3.33409C2.15991 4.50826 1.36028 6.00426 1.03633 7.63289C0.712372 9.26152 0.878638 10.9496 1.5141 12.4838C2.14956 14.0179 3.22567 15.3292 4.60636 16.2517C5.98705 17.1743 7.6103 17.6667 9.27084 17.6667C11.3504 17.6667 13.2621 16.9046 14.7346 15.6388L15.0833 16.0004V17.0208L21.5417 23.4663L23.4663 21.5417L17.0208 15.0833ZM9.27084 15.0833C6.05459 15.0833 3.45834 12.4871 3.45834 9.27084C3.45834 6.05459 6.05459 3.45834 9.27084 3.45834C12.4871 3.45834 15.0833 6.05459 15.0833 9.27084C15.0833 12.4871 12.4871 15.0833 9.27084 15.0833Z" fill="white"/>
</svg>
