<svg width="23" height="23" viewBox="0 0 23 23" fill="none" xmlns="http://www.w3.org/2000/svg">
<path d="M11.5 0.25C10.0226 0.25 8.55972 0.54099 7.19481 1.10636C5.8299 1.67172 4.58971 2.50039 3.54505 3.54505C1.43526 5.65483 0.25 8.51631 0.25 11.5C0.25 14.4837 1.43526 17.3452 3.54505 19.455C4.58971 20.4996 5.8299 21.3283 7.19481 21.8936C8.55972 22.459 10.0226 22.75 11.5 22.75C14.4837 22.75 17.3452 21.5647 19.455 19.455C21.5647 17.3452 22.75 14.4837 22.75 11.5C22.75 10.0226 22.459 8.55972 21.8936 7.19481C21.3283 5.8299 20.4996 4.58971 19.455 3.54505C18.4103 2.50039 17.1701 1.67172 15.8052 1.10636C14.4403 0.54099 12.9774 0.25 11.5 0.25ZM5.95375 18.565C6.4375 17.5525 9.385 16.5625 11.5 16.5625C13.615 16.5625 16.5625 17.5525 17.0462 18.565C15.4706 19.8205 13.5147 20.5029 11.5 20.5C9.4075 20.5 7.48375 19.78 5.95375 18.565ZM18.655 16.9338C17.0463 14.9762 13.1425 14.3125 11.5 14.3125C9.8575 14.3125 5.95375 14.9762 4.345 16.9338C3.14821 15.3752 2.49962 13.465 2.5 11.5C2.5 6.53875 6.53875 2.5 11.5 2.5C16.4613 2.5 20.5 6.53875 20.5 11.5C20.5 13.5475 19.8025 15.4375 18.655 16.9338ZM11.5 4.75C9.3175 4.75 7.5625 6.505 7.5625 8.6875C7.5625 10.87 9.3175 12.625 11.5 12.625C13.6825 12.625 15.4375 10.87 15.4375 8.6875C15.4375 6.505 13.6825 4.75 11.5 4.75ZM11.5 10.375C11.0524 10.375 10.6232 10.1972 10.3068 9.88074C9.99029 9.56428 9.8125 9.13505 9.8125 8.6875C9.8125 8.23995 9.99029 7.81072 10.3068 7.49426C10.6232 7.17779 11.0524 7 11.5 7C11.9476 7 12.3768 7.17779 12.6932 7.49426C13.0097 7.81072 13.1875 8.23995 13.1875 8.6875C13.1875 9.13505 13.0097 9.56428 12.6932 9.88074C12.3768 10.1972 11.9476 10.375 11.5 10.375Z" fill="white"/>
</svg>
